<svg
  width="440"
  height="70"
  viewBox="0 0 440 70"
  xmlns="http://www.w3.org/2000/svg">
  <defs>
    <linearGradient id="grad" x1="0%" y1="0%" x2="100%" y2="0%">
      <stop offset="0%" stop-color="#11ac7b">
        <animate
          attributeName="stop-color"
          values="#11ac7b; #00d2d3; #11ac7b; #20bf6b; #11ac7b"
          dur="5s"
          repeatCount="indefinite" />
      </stop>
      <stop offset="100%" stop-color="#00d2d3">
        <animate
          attributeName="stop-color"
          values="#00d2d3; #11ac7b; #20bf6b; #11ac7b; #00d2d3"
          dur="5s"
          repeatCount="indefinite" />
      </stop>
    </linearGradient>
  </defs>
  <style>
    #svgGroup path {
      transform: scale(0.42) translateY(10px);
      fill: url(#grad);
      fill-opacity: 0;
      stroke: url(#grad);
      stroke-width: 1px;
      stroke-linecap: round;
      fill-rule: evenodd;
      stroke-dasharray: var(--path-length);
      stroke-dashoffset: var(--path-length);
      vector-effect: non-scaling-stroke;
      animation: svg-text-anim 10s linear forwards;
    }

    /* 描邊動畫 */
    #svgGroup path:nth-child(1) {
      --path-length: 1000px;
    }
    #svgGroup path:nth-child(2) {
      --path-length: 1000px;
    }
    #svgGroup path:nth-child(3) {
      --path-length: 1000px;
    }
    #svgGroup path:nth-child(4) {
      --path-length: 1000px;
    }
    #svgGroup path:nth-child(5) {
      --path-length: 1000px;
    }
    #svgGroup path:nth-child(6) {
      --path-length: 1000px;
    }
    #svgGroup path:nth-child(7) {
      --path-length: 1000px;
    }
    #svgGroup path:nth-child(8) {
      --path-length: 1000px;
    }
    #svgGroup path:nth-child(9) {
      --path-length: 1000px;
    }

    @keyframes svg-text-anim {
      /* 開始：線條繪製 */
      0% {
        stroke-dashoffset: var(--path-length);
        fill-opacity: 0;
      }
      /* 結束：線條繪製 */
      60% {
        stroke-dashoffset: 0;
        fill-opacity: 0;
      }
      /* 開始：填色 */
      80% {
        stroke-dashoffset: 0;
        fill-opacity: 1;
      }
      /* 結束：填色 */
      100% {
        stroke-dashoffset: 0;
        fill-opacity: 1;
      }
    }
  </style>
  <g id="svgGroup">
    <path
      d="M 39.844 92.58 L 39.844 87.306 L 71.631 87.306 A 37.553 37.553 0 0 0 90.674 82.252 A 38.014 38.014 0 0 0 104.736 68.153 A 38.908 38.908 0 0 0 110.01 48.195 A 35.332 35.332 0 0 0 104.773 29.628 A 39.593 39.593 0 0 0 90.674 15.749 A 36.995 36.995 0 0 0 71.631 10.548 L 5.273 10.548 L 5.273 126.564 L 0 126.564 L 0 5.275 L 71.631 5.275 Q 83.13 5.275 93.237 11.171 Q 103.345 17.067 109.314 26.991 Q 115.283 36.916 115.283 48.195 A 51.471 51.471 0 0 1 113.882 60.445 A 41.537 41.537 0 0 1 109.68 71.12 A 40.709 40.709 0 0 1 94.482 86.574 L 108.105 126.564 L 102.539 126.564 L 89.502 89.064 A 100.603 100.603 0 0 1 88.124 89.604 Q 86.793 90.114 85.832 90.429 A 21.864 21.864 0 0 1 85.034 90.675 L 97.266 126.564 L 91.699 126.564 L 79.761 91.92 A 5.414 5.414 0 0 1 79.395 91.983 Q 78.534 92.108 76.176 92.331 A 314.139 314.139 0 0 1 75.073 92.433 L 86.426 126.564 L 80.859 126.564 L 69.653 92.58 L 64.893 92.58 L 75.586 126.564 L 70.02 126.564 L 59.253 92.58 L 39.844 92.58 Z M 39.844 82.033 L 39.844 76.759 L 71.631 76.759 A 27.088 27.088 0 0 0 91.244 68.755 A 32.71 32.71 0 0 0 91.26 68.739 A 26.938 26.938 0 0 0 99.378 50.692 A 36.257 36.257 0 0 0 99.463 48.195 A 25.197 25.197 0 0 0 92.575 30.816 A 33.824 33.824 0 0 0 91.077 29.262 A 29.297 29.297 0 0 0 82.325 23.266 A 26.519 26.519 0 0 0 71.631 21.095 L 15.82 21.095 L 15.82 126.564 L 10.547 126.564 L 10.547 15.822 L 71.631 15.822 A 31.939 31.939 0 0 1 88 20.29 A 34.122 34.122 0 0 1 100.195 32.265 A 30.282 30.282 0 0 1 104.736 48.195 A 34.998 34.998 0 0 1 102.33 61.348 A 32.367 32.367 0 0 1 94.958 72.328 A 32.765 32.765 0 0 1 82.018 80.431 A 33.114 33.114 0 0 1 71.631 82.033 L 39.844 82.033 Z M 39.844 71.486 L 39.844 66.212 L 71.631 66.212 A 18.542 18.542 0 0 0 78.467 64.985 A 17.03 17.03 0 0 0 83.899 61.525 Q 88.803 56.943 88.913 48.581 A 29.32 29.32 0 0 0 88.916 48.195 A 14.769 14.769 0 0 0 85.633 38.937 A 20.784 20.784 0 0 0 83.643 36.732 A 18.854 18.854 0 0 0 78.563 33.164 A 16.127 16.127 0 0 0 71.631 31.642 L 26.367 31.642 L 26.367 126.564 L 21.094 126.564 L 21.094 26.369 L 71.631 26.369 A 21.768 21.768 0 0 1 86.843 32.489 A 28.449 28.449 0 0 1 87.378 32.997 A 23.957 23.957 0 0 1 91.882 38.877 A 19.513 19.513 0 0 1 94.189 48.195 A 27.33 27.33 0 0 1 93.189 55.78 A 20.732 20.732 0 0 1 87.598 65.114 A 22.131 22.131 0 0 1 71.631 71.486 L 39.844 71.486 Z M 36.914 42.189 L 36.914 126.564 L 31.641 126.564 L 31.641 36.916 L 71.631 36.916 A 11.94 11.94 0 0 1 80.09 40.248 A 11.524 11.524 0 0 1 82.61 43.593 A 10.351 10.351 0 0 1 83.643 48.195 A 19.541 19.541 0 0 1 83.073 53.141 Q 81.416 59.455 74.941 60.656 A 18.164 18.164 0 0 1 71.631 60.939 L 39.844 60.939 L 39.844 55.666 L 71.631 55.666 A 9.71 9.71 0 0 0 73.636 55.471 Q 75.397 55.099 76.575 54.018 A 4.648 4.648 0 0 0 77.703 52.345 Q 78.369 50.739 78.369 48.195 A 5.461 5.461 0 0 0 76.663 44.129 A 6.8 6.8 0 0 0 76.428 43.91 A 6.792 6.792 0 0 0 72.373 42.219 A 8.914 8.914 0 0 0 71.631 42.189 L 36.914 42.189 Z" />
    <path
      d="M 128.394 96.352 Q 123.779 85.622 123.779 73.83 Q 123.779 62.038 128.394 51.308 A 59.357 59.357 0 0 1 138.394 35.345 A 55.691 55.691 0 0 1 140.771 32.814 A 58.15 58.15 0 0 1 157.935 21.025 A 66.339 66.339 0 0 1 159.265 20.436 Q 169.995 15.822 181.787 15.822 Q 193.579 15.822 204.309 20.436 A 59.357 59.357 0 0 1 220.272 30.436 A 55.691 55.691 0 0 1 222.803 32.814 A 58.15 58.15 0 0 1 234.592 49.978 A 66.339 66.339 0 0 1 235.181 51.308 Q 239.795 62.038 239.795 73.83 Q 239.795 85.622 235.181 96.352 A 59.357 59.357 0 0 1 225.18 112.314 A 55.691 55.691 0 0 1 222.803 114.845 A 58.15 58.15 0 0 1 205.639 126.634 A 66.339 66.339 0 0 1 204.309 127.223 Q 193.579 131.837 181.787 131.837 Q 169.995 131.837 159.265 127.223 A 59.357 59.357 0 0 1 143.302 117.223 A 55.691 55.691 0 0 1 140.771 114.845 A 58.15 58.15 0 0 1 128.983 97.681 A 66.339 66.339 0 0 1 128.394 96.352 Z M 133.228 53.358 A 51.604 51.604 0 0 0 129.053 73.83 A 51.604 51.604 0 0 0 133.228 94.301 A 53.648 53.648 0 0 0 142.306 108.842 A 50.366 50.366 0 0 0 144.47 111.146 A 52.56 52.56 0 0 0 160.104 121.856 A 59.984 59.984 0 0 0 161.316 122.389 A 51.604 51.604 0 0 0 181.787 126.564 A 51.604 51.604 0 0 0 202.258 122.389 A 53.648 53.648 0 0 0 216.8 113.31 A 50.366 50.366 0 0 0 219.104 111.146 A 52.56 52.56 0 0 0 229.814 95.512 A 59.984 59.984 0 0 0 230.347 94.301 A 51.604 51.604 0 0 0 234.521 73.83 A 51.604 51.604 0 0 0 230.347 53.358 A 53.648 53.648 0 0 0 221.268 38.817 A 50.366 50.366 0 0 0 219.104 36.513 A 52.56 52.56 0 0 0 203.47 25.803 A 59.984 59.984 0 0 0 202.258 25.27 A 51.604 51.604 0 0 0 181.787 21.095 A 51.604 51.604 0 0 0 161.316 25.27 A 53.648 53.648 0 0 0 146.774 34.349 A 50.366 50.366 0 0 0 144.47 36.513 A 52.56 52.56 0 0 0 133.761 52.147 A 59.984 59.984 0 0 0 133.228 53.358 Z M 138.098 92.287 Q 134.326 83.498 134.326 73.83 Q 134.326 64.162 138.098 55.373 A 48.624 48.624 0 0 1 145.908 42.723 A 45.256 45.256 0 0 1 148.206 40.248 Q 154.541 33.913 163.33 30.141 Q 172.119 26.369 181.787 26.369 Q 191.455 26.369 200.244 30.141 A 48.624 48.624 0 0 1 212.893 37.951 A 45.256 45.256 0 0 1 215.369 40.248 Q 221.704 46.583 225.476 55.373 Q 229.248 64.162 229.248 73.83 Q 229.248 83.498 225.476 92.287 A 48.624 48.624 0 0 1 217.666 104.936 A 45.256 45.256 0 0 1 215.369 107.411 Q 209.033 113.747 200.244 117.519 Q 191.455 121.291 181.787 121.291 Q 172.119 121.291 163.33 117.519 A 48.624 48.624 0 0 1 150.681 109.708 A 45.256 45.256 0 0 1 148.206 107.411 Q 141.87 101.076 138.098 92.287 Z M 142.932 57.46 A 41.239 41.239 0 0 0 139.6 73.83 A 41.239 41.239 0 0 0 142.932 90.199 Q 146.265 98 151.941 103.676 A 42.242 42.242 0 0 0 164.932 112.474 A 47.859 47.859 0 0 0 165.417 112.685 A 41.239 41.239 0 0 0 181.787 116.017 A 41.239 41.239 0 0 0 198.157 112.685 Q 205.957 109.352 211.633 103.676 A 42.242 42.242 0 0 0 220.432 90.685 A 47.859 47.859 0 0 0 220.642 90.199 A 41.239 41.239 0 0 0 223.975 73.83 A 41.239 41.239 0 0 0 220.642 57.46 Q 217.31 49.66 211.633 43.983 A 42.242 42.242 0 0 0 198.642 35.185 A 47.859 47.859 0 0 0 198.157 34.975 A 41.239 41.239 0 0 0 181.787 31.642 A 41.239 41.239 0 0 0 165.417 34.975 Q 157.617 38.307 151.941 43.983 A 42.242 42.242 0 0 0 143.143 56.975 A 47.859 47.859 0 0 0 142.932 57.46 Z M 144.873 73.83 A 36.195 36.195 0 0 0 149.817 92.36 Q 154.761 100.856 163.257 105.8 A 36.195 36.195 0 0 0 181.787 110.744 A 36.195 36.195 0 0 0 200.317 105.8 Q 208.813 100.856 213.757 92.36 A 36.195 36.195 0 0 0 218.701 73.83 A 36.195 36.195 0 0 0 213.757 55.299 Q 208.813 46.803 200.317 41.859 A 36.195 36.195 0 0 0 181.787 36.916 A 36.195 36.195 0 0 0 163.257 41.859 Q 154.761 46.803 149.817 55.299 A 36.195 36.195 0 0 0 144.873 73.83 Z M 159.412 51.491 A 30.492 30.492 0 0 0 150.149 73.423 A 36.445 36.445 0 0 0 150.146 73.83 A 30.481 30.481 0 0 0 159.124 95.877 A 37.211 37.211 0 0 0 159.412 96.168 A 30.391 30.391 0 0 0 181.378 105.468 A 36.707 36.707 0 0 0 181.787 105.47 A 30.389 30.389 0 0 0 203.872 96.457 A 36.86 36.86 0 0 0 204.163 96.168 A 30.492 30.492 0 0 0 213.425 74.236 A 36.445 36.445 0 0 0 213.428 73.83 A 30.481 30.481 0 0 0 204.45 51.782 A 37.211 37.211 0 0 0 204.163 51.491 A 30.391 30.391 0 0 0 182.196 42.191 A 36.707 36.707 0 0 0 181.787 42.189 A 30.389 30.389 0 0 0 159.702 51.202 A 36.86 36.86 0 0 0 159.412 51.491 Z M 155.422 74.17 A 25.372 25.372 0 0 0 163.147 92.47 A 30.738 30.738 0 0 0 163.389 92.709 A 25.37 25.37 0 0 0 181.787 100.197 A 30.618 30.618 0 0 0 182.127 100.195 A 25.372 25.372 0 0 0 200.427 92.47 A 30.738 30.738 0 0 0 200.667 92.227 A 25.37 25.37 0 0 0 208.154 73.83 A 30.618 30.618 0 0 0 208.152 73.489 A 25.372 25.372 0 0 0 200.427 55.189 A 30.738 30.738 0 0 0 200.185 54.95 A 25.37 25.37 0 0 0 181.787 47.462 A 30.618 30.618 0 0 0 181.447 47.464 A 25.372 25.372 0 0 0 163.147 55.189 A 30.738 30.738 0 0 0 162.907 55.432 A 25.37 25.37 0 0 0 155.42 73.83 A 30.618 30.618 0 0 0 155.422 74.17 Z M 166.882 58.925 A 20.294 20.294 0 0 0 160.695 73.558 A 24.386 24.386 0 0 0 160.693 73.83 A 20.29 20.29 0 0 0 166.69 88.54 A 24.693 24.693 0 0 0 166.882 88.734 A 20.294 20.294 0 0 0 181.515 94.922 A 24.386 24.386 0 0 0 181.787 94.923 A 20.29 20.29 0 0 0 196.498 88.926 A 24.693 24.693 0 0 0 196.692 88.734 A 20.294 20.294 0 0 0 202.879 74.101 A 24.386 24.386 0 0 0 202.881 73.83 A 20.29 20.29 0 0 0 196.884 59.119 A 24.693 24.693 0 0 0 196.692 58.925 A 20.294 20.294 0 0 0 182.059 52.737 A 24.386 24.386 0 0 0 181.787 52.736 A 20.29 20.29 0 0 0 167.076 58.733 A 24.693 24.693 0 0 0 166.882 58.925 Z" />
    <path
      d="M 337.207 88.698 L 337.207 73.097 L 342.48 73.097 L 342.48 126.564 A 58.469 58.469 0 0 1 318.237 131.837 Q 306.445 131.837 295.715 127.223 A 59.357 59.357 0 0 1 279.752 117.223 A 55.691 55.691 0 0 1 277.222 114.845 A 58.15 58.15 0 0 1 265.433 97.681 A 66.339 66.339 0 0 1 264.844 96.352 Q 260.229 85.622 260.229 73.83 Q 260.229 62.038 264.844 51.308 A 59.357 59.357 0 0 1 274.844 35.345 A 55.691 55.691 0 0 1 277.222 32.814 A 58.15 58.15 0 0 1 294.386 21.025 A 66.339 66.339 0 0 1 295.715 20.436 Q 306.445 15.822 318.237 15.822 A 56.762 56.762 0 0 1 343.579 21.645 Q 355.444 27.467 363.574 37.648 L 359.326 40.797 A 53.136 53.136 0 0 0 341.199 26.369 A 51.364 51.364 0 0 0 318.237 21.095 A 51.604 51.604 0 0 0 297.766 25.27 A 53.648 53.648 0 0 0 283.225 34.349 A 50.366 50.366 0 0 0 280.92 36.513 A 52.56 52.56 0 0 0 270.211 52.147 A 59.984 59.984 0 0 0 269.678 53.358 A 51.604 51.604 0 0 0 265.503 73.83 A 51.604 51.604 0 0 0 269.678 94.301 A 53.648 53.648 0 0 0 278.756 108.842 A 50.366 50.366 0 0 0 280.92 111.146 A 52.56 52.56 0 0 0 296.554 121.856 A 59.984 59.984 0 0 0 297.766 122.389 A 51.604 51.604 0 0 0 318.237 126.564 Q 328.125 126.564 337.207 123.048 L 337.207 117.628 Q 328.052 121.291 318.237 121.291 Q 308.569 121.291 299.78 117.519 A 48.624 48.624 0 0 1 287.131 109.708 A 45.256 45.256 0 0 1 284.656 107.411 Q 278.32 101.076 274.548 92.287 Q 270.776 83.498 270.776 73.83 Q 270.776 64.162 274.548 55.373 A 48.624 48.624 0 0 1 282.359 42.723 A 45.256 45.256 0 0 1 284.656 40.248 Q 290.991 33.913 299.78 30.141 Q 308.569 26.369 318.237 26.369 Q 329.297 26.369 339.001 31.129 Q 348.706 35.89 355.371 44.24 L 351.27 47.536 A 42.432 42.432 0 0 0 336.694 35.89 A 41.287 41.287 0 0 0 318.237 31.642 A 41.239 41.239 0 0 0 301.868 34.975 Q 294.067 38.307 288.391 43.983 A 42.242 42.242 0 0 0 279.593 56.975 A 47.859 47.859 0 0 0 279.382 57.46 A 41.239 41.239 0 0 0 276.05 73.83 A 41.239 41.239 0 0 0 279.382 90.199 Q 282.715 98 288.391 103.676 A 42.242 42.242 0 0 0 301.382 112.474 A 47.859 47.859 0 0 0 301.868 112.685 A 41.239 41.239 0 0 0 318.237 116.017 A 44.616 44.616 0 0 0 337.207 111.916 L 337.207 106.496 A 43.323 43.323 0 0 1 318.237 110.744 A 36.195 36.195 0 0 1 299.707 105.8 Q 291.211 100.856 286.267 92.36 A 36.195 36.195 0 0 1 281.323 73.83 A 36.195 36.195 0 0 1 286.267 55.299 Q 291.211 46.803 299.707 41.859 A 36.195 36.195 0 0 1 318.237 36.916 A 36.349 36.349 0 0 1 334.387 40.614 A 36.058 36.058 0 0 1 347.095 50.832 L 342.92 54.054 A 30.833 30.833 0 0 0 332.043 45.338 A 31.183 31.183 0 0 0 318.237 42.189 A 30.389 30.389 0 0 0 296.152 51.202 A 36.86 36.86 0 0 0 295.862 51.491 A 30.492 30.492 0 0 0 286.599 73.423 A 36.445 36.445 0 0 0 286.597 73.83 A 30.481 30.481 0 0 0 295.575 95.877 A 37.211 37.211 0 0 0 295.862 96.168 A 30.391 30.391 0 0 0 317.829 105.468 A 36.707 36.707 0 0 0 318.237 105.47 A 37.581 37.581 0 0 0 337.207 100.49 L 337.207 95.143 Q 328.638 100.197 318.237 100.197 A 25.37 25.37 0 0 1 299.839 92.709 A 30.738 30.738 0 0 1 299.597 92.47 A 25.372 25.372 0 0 1 291.872 74.17 A 30.618 30.618 0 0 1 291.87 73.83 A 25.37 25.37 0 0 1 299.358 55.432 A 30.738 30.738 0 0 1 299.597 55.189 A 25.372 25.372 0 0 1 317.897 47.464 A 30.618 30.618 0 0 1 318.237 47.462 A 25.812 25.812 0 0 1 329.81 50.136 A 26.262 26.262 0 0 1 338.892 57.423 L 334.644 60.646 A 21.356 21.356 0 0 0 327.865 54.968 A 20.568 20.568 0 0 0 318.237 52.736 A 20.29 20.29 0 0 0 303.527 58.733 A 24.693 24.693 0 0 0 303.333 58.925 A 20.294 20.294 0 0 0 297.145 73.558 A 24.386 24.386 0 0 0 297.144 73.83 A 20.29 20.29 0 0 0 303.141 88.54 A 24.693 24.693 0 0 0 303.333 88.734 A 20.294 20.294 0 0 0 317.966 94.922 A 24.386 24.386 0 0 0 318.237 94.923 A 33.532 33.532 0 0 0 327.686 93.645 A 27.33 27.33 0 0 0 337.207 88.698 Z M 368.848 126.564 L 368.848 73.097 L 374.121 73.097 L 374.121 126.564 L 368.848 126.564 Z M 358.301 126.564 L 358.301 73.097 L 363.574 73.097 L 363.574 126.564 L 358.301 126.564 Z M 347.754 126.564 L 347.754 73.097 L 353.027 73.097 L 353.027 126.564 L 347.754 126.564 Z" />
    <path
      d="M 423.999 86.94 L 423.999 100.197 L 474.463 100.197 L 474.463 105.47 L 423.999 105.47 L 423.999 110.744 L 474.463 110.744 L 474.463 116.017 L 423.999 116.017 L 423.999 121.291 L 474.463 121.291 L 474.463 126.564 L 418.726 126.564 L 418.726 21.095 L 474.463 21.095 L 474.463 26.369 L 423.999 26.369 L 423.999 31.642 L 474.463 31.642 L 474.463 36.916 L 423.999 36.916 L 423.999 42.189 L 474.463 42.189 L 474.463 47.462 L 423.999 47.462 L 423.999 60.573 L 471.533 60.573 L 471.533 65.846 L 423.999 65.846 L 423.999 71.12 L 471.533 71.12 L 471.533 76.393 L 423.999 76.393 L 423.999 81.667 L 471.533 81.667 L 471.533 86.94 L 423.999 86.94 Z M 413.452 21.095 L 413.452 126.564 L 408.179 126.564 L 408.179 21.095 L 413.452 21.095 Z M 402.905 21.095 L 402.905 126.564 L 397.632 126.564 L 397.632 21.095 L 402.905 21.095 Z M 392.358 21.095 L 392.358 126.564 L 387.085 126.564 L 387.085 21.095 L 392.358 21.095 Z" />
    <path
      d="M 518.774 126.564 L 518.774 21.095 L 524.048 21.095 L 524.048 100.197 L 562.939 100.197 L 562.939 105.47 L 524.048 105.47 L 524.048 110.744 L 562.939 110.744 L 562.939 116.017 L 524.048 116.017 L 524.048 121.291 L 562.939 121.291 L 562.939 126.564 L 518.774 126.564 Z M 487.134 126.564 L 487.134 21.095 L 492.407 21.095 L 492.407 126.564 L 487.134 126.564 Z M 508.228 126.564 L 508.228 21.095 L 513.501 21.095 L 513.501 126.564 L 508.228 126.564 Z M 497.681 126.564 L 497.681 21.095 L 502.954 21.095 L 502.954 126.564 L 497.681 126.564 Z" />
    <path
      d="M 606.226 126.564 L 606.226 21.095 L 611.499 21.095 L 611.499 126.564 L 606.226 126.564 Z M 595.679 126.564 L 595.679 21.095 L 600.952 21.095 L 600.952 126.564 L 595.679 126.564 Z M 585.132 126.564 L 585.132 21.095 L 590.405 21.095 L 590.405 126.564 L 585.132 126.564 Z M 574.585 126.564 L 574.585 21.095 L 579.858 21.095 L 579.858 126.564 L 574.585 126.564 Z" />
    <path
      d="M 627.1 96.352 Q 622.485 85.622 622.485 73.83 Q 622.485 62.038 627.1 51.308 A 59.357 59.357 0 0 1 637.1 35.345 A 55.691 55.691 0 0 1 639.478 32.814 A 58.15 58.15 0 0 1 656.642 21.025 A 66.339 66.339 0 0 1 657.971 20.436 Q 668.701 15.822 680.493 15.822 Q 692.285 15.822 703.015 20.436 A 59.357 59.357 0 0 1 718.978 30.436 A 55.691 55.691 0 0 1 721.509 32.814 A 58.15 58.15 0 0 1 733.298 49.978 A 66.339 66.339 0 0 1 733.887 51.308 Q 738.501 62.038 738.501 73.83 Q 738.501 85.622 733.887 96.352 A 59.357 59.357 0 0 1 723.886 112.314 A 55.691 55.691 0 0 1 721.509 114.845 A 58.15 58.15 0 0 1 704.345 126.634 A 66.339 66.339 0 0 1 703.015 127.223 Q 692.285 131.837 680.493 131.837 Q 668.701 131.837 657.971 127.223 A 59.357 59.357 0 0 1 642.008 117.223 A 55.691 55.691 0 0 1 639.478 114.845 A 58.15 58.15 0 0 1 627.689 97.681 A 66.339 66.339 0 0 1 627.1 96.352 Z M 631.934 53.358 A 51.604 51.604 0 0 0 627.759 73.83 A 51.604 51.604 0 0 0 631.934 94.301 A 53.648 53.648 0 0 0 641.012 108.842 A 50.366 50.366 0 0 0 643.176 111.146 A 52.56 52.56 0 0 0 658.81 121.856 A 59.984 59.984 0 0 0 660.022 122.389 A 51.604 51.604 0 0 0 680.493 126.564 A 51.604 51.604 0 0 0 700.964 122.389 A 53.648 53.648 0 0 0 715.506 113.31 A 50.366 50.366 0 0 0 717.81 111.146 A 52.56 52.56 0 0 0 728.52 95.512 A 59.984 59.984 0 0 0 729.053 94.301 A 51.604 51.604 0 0 0 733.228 73.83 A 51.604 51.604 0 0 0 729.053 53.358 A 53.648 53.648 0 0 0 719.974 38.817 A 50.366 50.366 0 0 0 717.81 36.513 A 52.56 52.56 0 0 0 702.176 25.803 A 59.984 59.984 0 0 0 700.964 25.27 A 51.604 51.604 0 0 0 680.493 21.095 A 51.604 51.604 0 0 0 660.022 25.27 A 53.648 53.648 0 0 0 645.48 34.349 A 50.366 50.366 0 0 0 643.176 36.513 A 52.56 52.56 0 0 0 632.467 52.147 A 59.984 59.984 0 0 0 631.934 53.358 Z M 636.804 92.287 Q 633.032 83.498 633.032 73.83 Q 633.032 64.162 636.804 55.373 A 48.624 48.624 0 0 1 644.615 42.723 A 45.256 45.256 0 0 1 646.912 40.248 Q 653.247 33.913 662.036 30.141 Q 670.825 26.369 680.493 26.369 Q 690.161 26.369 698.95 30.141 A 48.624 48.624 0 0 1 711.599 37.951 A 45.256 45.256 0 0 1 714.075 40.248 Q 720.41 46.583 724.182 55.373 Q 727.954 64.162 727.954 73.83 Q 727.954 83.498 724.182 92.287 A 48.624 48.624 0 0 1 716.372 104.936 A 45.256 45.256 0 0 1 714.075 107.411 Q 707.739 113.747 698.95 117.519 Q 690.161 121.291 680.493 121.291 Q 670.825 121.291 662.036 117.519 A 48.624 48.624 0 0 1 649.387 109.708 A 45.256 45.256 0 0 1 646.912 107.411 Q 640.576 101.076 636.804 92.287 Z M 641.638 57.46 A 41.239 41.239 0 0 0 638.306 73.83 A 41.239 41.239 0 0 0 641.638 90.199 Q 644.971 98 650.647 103.676 A 42.242 42.242 0 0 0 663.638 112.474 A 47.859 47.859 0 0 0 664.124 112.685 A 41.239 41.239 0 0 0 680.493 116.017 A 41.239 41.239 0 0 0 696.863 112.685 Q 704.663 109.352 710.339 103.676 A 42.242 42.242 0 0 0 719.138 90.685 A 47.859 47.859 0 0 0 719.348 90.199 A 41.239 41.239 0 0 0 722.681 73.83 A 41.239 41.239 0 0 0 719.348 57.46 Q 716.016 49.66 710.339 43.983 A 42.242 42.242 0 0 0 697.348 35.185 A 47.859 47.859 0 0 0 696.863 34.975 A 41.239 41.239 0 0 0 680.493 31.642 A 41.239 41.239 0 0 0 664.124 34.975 Q 656.323 38.307 650.647 43.983 A 42.242 42.242 0 0 0 641.849 56.975 A 47.859 47.859 0 0 0 641.638 57.46 Z M 643.579 73.83 A 36.195 36.195 0 0 0 648.523 92.36 Q 653.467 100.856 661.963 105.8 A 36.195 36.195 0 0 0 680.493 110.744 A 36.195 36.195 0 0 0 699.023 105.8 Q 707.52 100.856 712.463 92.36 A 36.195 36.195 0 0 0 717.407 73.83 A 36.195 36.195 0 0 0 712.463 55.299 Q 707.52 46.803 699.023 41.859 A 36.195 36.195 0 0 0 680.493 36.916 A 36.195 36.195 0 0 0 661.963 41.859 Q 653.467 46.803 648.523 55.299 A 36.195 36.195 0 0 0 643.579 73.83 Z M 658.118 51.491 A 30.492 30.492 0 0 0 648.855 73.423 A 36.445 36.445 0 0 0 648.853 73.83 A 30.481 30.481 0 0 0 657.83 95.877 A 37.211 37.211 0 0 0 658.118 96.168 A 30.391 30.391 0 0 0 680.084 105.468 A 36.707 36.707 0 0 0 680.493 105.47 A 30.389 30.389 0 0 0 702.578 96.457 A 36.86 36.86 0 0 0 702.869 96.168 A 30.492 30.492 0 0 0 712.132 74.236 A 36.445 36.445 0 0 0 712.134 73.83 A 30.481 30.481 0 0 0 703.156 51.782 A 37.211 37.211 0 0 0 702.869 51.491 A 30.391 30.391 0 0 0 680.902 42.191 A 36.707 36.707 0 0 0 680.493 42.189 A 30.389 30.389 0 0 0 658.408 51.202 A 36.86 36.86 0 0 0 658.118 51.491 Z M 654.128 74.17 A 25.372 25.372 0 0 0 661.853 92.47 A 30.738 30.738 0 0 0 662.095 92.709 A 25.37 25.37 0 0 0 680.493 100.197 A 30.618 30.618 0 0 0 680.833 100.195 A 25.372 25.372 0 0 0 699.133 92.47 A 30.738 30.738 0 0 0 699.373 92.227 A 25.37 25.37 0 0 0 706.86 73.83 A 30.618 30.618 0 0 0 706.858 73.489 A 25.372 25.372 0 0 0 699.133 55.189 A 30.738 30.738 0 0 0 698.891 54.95 A 25.37 25.37 0 0 0 680.493 47.462 A 30.618 30.618 0 0 0 680.153 47.464 A 25.372 25.372 0 0 0 661.853 55.189 A 30.738 30.738 0 0 0 661.613 55.432 A 25.37 25.37 0 0 0 654.126 73.83 A 30.618 30.618 0 0 0 654.128 74.17 Z M 665.588 58.925 A 20.294 20.294 0 0 0 659.401 73.558 A 24.386 24.386 0 0 0 659.399 73.83 A 20.29 20.29 0 0 0 665.396 88.54 A 24.693 24.693 0 0 0 665.588 88.734 A 20.294 20.294 0 0 0 680.221 94.922 A 24.386 24.386 0 0 0 680.493 94.923 A 20.29 20.29 0 0 0 695.204 88.926 A 24.693 24.693 0 0 0 695.398 88.734 A 20.294 20.294 0 0 0 701.585 74.101 A 24.386 24.386 0 0 0 701.587 73.83 A 20.29 20.29 0 0 0 695.59 59.119 A 24.693 24.693 0 0 0 695.398 58.925 A 20.294 20.294 0 0 0 680.765 52.737 A 24.386 24.386 0 0 0 680.493 52.736 A 20.29 20.29 0 0 0 665.782 58.733 A 24.693 24.693 0 0 0 665.588 58.925 Z" />
    <path
      d="M 821.338 126.564 L 790.283 65.919 L 821.338 5.275 L 827.197 5.275 L 796.143 65.919 L 827.197 126.564 L 821.338 126.564 Z M 856.714 126.564 L 825.732 65.919 L 856.714 5.275 L 862.573 5.275 L 831.592 65.919 L 862.573 126.564 L 856.714 126.564 Z M 844.922 126.564 L 813.94 65.919 L 844.922 5.275 L 850.781 5.275 L 819.8 65.919 L 850.781 126.564 L 844.922 126.564 Z M 833.13 126.564 L 802.148 65.919 L 833.13 5.275 L 838.989 5.275 L 808.008 65.919 L 838.989 126.564 L 833.13 126.564 Z M 787.207 5.275 L 787.207 126.564 L 781.934 126.564 L 781.934 5.275 L 787.207 5.275 Z M 776.66 5.275 L 776.66 126.564 L 771.387 126.564 L 771.387 5.275 L 776.66 5.275 Z M 766.113 5.275 L 766.113 126.564 L 760.84 126.564 L 760.84 5.275 L 766.113 5.275 Z M 755.566 5.275 L 755.566 126.564 L 750.293 126.564 L 750.293 5.275 L 755.566 5.275 Z" />
    <path
      d="M 959.033 63.209 L 964.307 63.209 L 964.307 126.564 A 80.77 80.77 0 0 1 935.449 131.837 Q 922.485 131.837 910.62 127.077 Q 898.755 122.316 889.746 113.856 Q 880.737 105.397 875.354 92.909 A 66.934 66.934 0 0 1 869.994 67.837 A 77.077 77.077 0 0 1 869.971 65.919 A 64.204 64.204 0 0 1 875.208 40.321 A 67.344 67.344 0 0 1 886.6 22.141 A 63.247 63.247 0 0 1 889.27 19.301 A 65.999 65.999 0 0 1 908.779 5.907 A 75.25 75.25 0 0 1 910.291 5.238 A 64.204 64.204 0 0 1 935.889 0.001 A 64.259 64.259 0 0 1 966.943 7.765 Q 981.299 15.529 990.381 28.859 L 985.986 31.715 A 60.239 60.239 0 0 0 964.417 12.379 Q 951.196 5.275 935.889 5.275 A 59.388 59.388 0 0 0 912.341 10.072 A 61.638 61.638 0 0 0 895.585 20.54 A 57.923 57.923 0 0 0 892.969 23 A 60.409 60.409 0 0 0 880.654 40.979 A 68.895 68.895 0 0 0 880.042 42.372 A 59.388 59.388 0 0 0 875.244 65.919 A 62.623 62.623 0 0 0 878.996 87.681 A 59.605 59.605 0 0 0 880.188 90.675 A 60.518 60.518 0 0 0 887.655 103.59 A 52.515 52.515 0 0 0 893.372 109.938 Q 901.611 117.702 912.524 122.133 A 59.797 59.797 0 0 0 935.229 126.564 A 73.489 73.489 0 0 0 959.033 122.682 L 959.033 117.628 Q 948.12 121.291 936.108 121.291 A 59.096 59.096 0 0 1 919.153 118.837 A 54.013 54.013 0 0 1 903.918 111.586 A 55.51 55.51 0 0 1 891.687 100.16 Q 886.45 93.532 883.484 84.706 A 57.975 57.975 0 0 1 880.544 67.777 A 65.854 65.854 0 0 1 880.518 65.919 A 54.122 54.122 0 0 1 887.952 38.161 Q 895.386 25.417 908.13 17.982 A 54.122 54.122 0 0 1 935.889 10.548 A 53.977 53.977 0 0 1 962.036 17.104 A 55.385 55.385 0 0 1 981.738 34.865 L 977.344 37.721 A 49.811 49.811 0 0 0 959.509 21.718 Q 948.56 15.822 935.889 15.822 A 49.287 49.287 0 0 0 916.406 19.777 A 50.919 50.919 0 0 0 903.007 28.017 A 47.488 47.488 0 0 0 900.403 30.434 A 49.65 49.65 0 0 0 890.316 45.142 A 56.866 56.866 0 0 0 889.746 46.437 A 49.287 49.287 0 0 0 885.791 65.919 A 55.618 55.618 0 0 0 887.295 79.014 A 50.038 50.038 0 0 0 888.464 83.095 A 48.251 48.251 0 0 0 892.731 92.529 A 41.521 41.521 0 0 0 895.862 97.084 A 49.432 49.432 0 0 0 906.885 107.338 Q 913.184 111.623 920.618 113.82 Q 928.052 116.017 935.889 116.017 A 65.629 65.629 0 0 0 959.033 111.916 L 959.033 106.642 A 62.432 62.432 0 0 1 936.401 110.817 A 48.33 48.33 0 0 1 919.336 107.777 A 46.24 46.24 0 0 1 904.871 99.171 A 37.763 37.763 0 0 1 896.694 88.845 A 46.1 46.1 0 0 1 894.8 84.962 Q 891.064 76.32 891.064 65.919 Q 891.064 53.761 897.07 43.434 Q 903.076 33.107 913.403 27.101 Q 923.73 21.095 935.889 21.095 Q 947.241 21.095 957.019 26.369 Q 966.797 31.642 972.949 40.724 L 968.555 43.581 A 39.495 39.495 0 0 0 954.529 31.02 A 38.591 38.591 0 0 0 935.889 26.369 A 38.624 38.624 0 0 0 916.04 31.679 Q 906.958 36.989 901.648 46.071 A 38.624 38.624 0 0 0 896.338 65.919 Q 896.338 73.39 898.462 79.835 A 38.457 38.457 0 0 0 901.54 86.848 A 32.015 32.015 0 0 0 904.321 90.968 Q 908.057 95.656 913.074 98.952 A 39.037 39.037 0 0 0 923.877 103.896 A 43.637 43.637 0 0 0 935.889 105.543 Q 948.267 105.543 959.033 100.636 L 959.033 95.583 A 54.531 54.531 0 0 1 937.677 100.187 A 62.692 62.692 0 0 1 936.548 100.197 A 40.63 40.63 0 0 1 925.773 98.795 A 37.493 37.493 0 0 1 923.438 98.073 Q 917.285 95.949 912.341 91.847 A 26.773 26.773 0 0 1 906.294 84.608 A 33.54 33.54 0 0 1 904.504 81.044 A 35.091 35.091 0 0 1 901.953 71.507 A 44.336 44.336 0 0 1 901.611 65.919 Q 901.611 58.961 904.321 52.626 A 34.627 34.627 0 0 1 911.067 42.269 A 33.167 33.167 0 0 1 911.646 41.676 A 34.421 34.421 0 0 1 922.398 34.437 A 39.008 39.008 0 0 1 922.595 34.352 Q 928.931 31.642 935.889 31.642 Q 944.604 31.642 952.075 35.707 A 34.06 34.06 0 0 1 964.233 46.73 L 959.912 49.586 Q 955.957 43.727 949.622 40.321 A 28.551 28.551 0 0 0 935.889 36.916 A 27.911 27.911 0 0 0 915.647 45.148 A 33.76 33.76 0 0 0 915.381 45.412 A 27.911 27.911 0 0 0 906.887 65.545 A 33.737 33.737 0 0 0 906.885 65.919 A 38.5 38.5 0 0 0 907.452 72.682 A 29.097 29.097 0 0 0 909.302 78.993 A 25.527 25.527 0 0 0 912.35 84.348 A 20.927 20.927 0 0 0 915.93 88.075 A 29.747 29.747 0 0 0 925.305 93.202 Q 930.469 94.923 936.401 94.923 A 51.392 51.392 0 0 0 959.033 89.87 L 959.033 63.209 Z M 969.58 126.564 L 969.58 63.209 L 974.854 63.209 L 974.854 126.564 L 969.58 126.564 Z M 990.674 126.564 L 990.674 63.209 L 995.947 63.209 L 995.947 126.564 L 990.674 126.564 Z M 980.127 126.564 L 980.127 63.209 L 985.4 63.209 L 985.4 126.564 L 980.127 126.564 Z" />
  </g>
</svg>
